<?xml version="1.0" encoding="utf-8"?>
<!-- Generator: Adobe Illustrator 22.0.1, SVG Export Plug-In . SVG Version: 6.00 Build 0)  -->
<svg version="1.1" xmlns="http://www.w3.org/2000/svg" xmlns:xlink="http://www.w3.org/1999/xlink" x="0px" y="0px"
	 viewBox="0 0 750 500" style="enable-background:new 0 0 750 500;" xml:space="preserve">
<style type="text/css">
	.st0{fill:#FFFFFF;}
	.st1{fill:#F7A285;}
	.st2{fill:#1B2B66;}
	.st3{fill:#964736;}
	.st4{fill:#E7674E;}
	.st5{fill:#344A9F;}
	.st6{fill:#F8AC5E;}
	.st7{fill:#9E6355;}
	.st8{fill:#1C2A67;}
	.st9{fill:#F3D5B9;}
	.st10{fill:#964738;}
	.st11{fill:#F0A585;}
	.st12{fill:#E7654B;}
	.st13{fill:#924430;}
	.st14{fill:#ECC19C;}
</style>
<g id="BACKGROUND_1">
	<rect class="st0" width="750" height="500"/>
</g>
<g id="OBJECT">
	<g>
		<g>
			<path class="st1" d="M98.2,387.3c0-0.2-0.1-0.5-0.1-0.7c-0.4-2.4-4.5-2.4-4.9,0C91.4,397.2,91.3,409,92,420
				c-3.6,14-12,10.5-5.3,16.9c0,0,0,0,0,0c3.8,0,9-1.5,12.4-2.6c0.7-3.9,0.2-8.8,0.4-11.5c0-0.5,0-1-0.2-1.4c0-0.4,0-0.9,0.1-1.3
				c0.1-1.7,0.2-3.4,0.2-5.1c0.4-8.2,0.8-16.5,1.3-24.7C101.1,388.5,99.6,387.4,98.2,387.3z"/>
			<path class="st2" d="M98.3,429.3c-0.6,0.6-1.8,0.9-2.3,0.2c-0.2-0.3-0.2-0.7-0.3-1.1c-0.1-1.5-1.1-3.2-2.8-3.4
				c-2.1-0.3-2.9,1.5-4,2.8c-2.3,2.5-4.7,3.1-7.7,4.4c-2,0.8-4.7,3.3-3,5.6c1.9,2.5,8.7,2.2,11.3,1.3c2.9-1.1,5.3-3.4,8.4-3.6
				c0.6,0,1.4,0,1.7-0.5c0.2-0.3,0.2-0.6,0.2-0.9c0-2.2,0-4.5-0.1-6.7C99.2,427.8,98.9,428.7,98.3,429.3z"/>
		</g>
		<g>
			<path class="st1" d="M143.2,420.3c-1-2.1-0.8-4.6-0.6-6.9c1-10.2,1.9-20.4,2.9-30.6c0-0.2-8.2,5.7-9.1,6.9
				c-2.4,3.3-2.6,5.3-2.3,9.3c0.9,10.6,1.3,20.9-0.1,31.4c-0.1,0.4-0.1,0.8,0.1,1.2c0.4,0.8,1.6,0.8,2.5,0.7c3.3-0.4,6.8-0.1,10,0.8
				c2.6,0.7,5,1.8,7.7,2.2c2.6,0.4,5.6,0.1,7.5-1.8c-4.2-2.7-8.5-5.4-12.8-8C146.7,424.1,144.3,422.6,143.2,420.3z"/>
			<path class="st2" d="M147.4,424.5c-1.5,1.1-3,2.1-4.7,2.6c-2.8,0.8-5.5,0.6-8.3,0.4c-0.1,1-0.2,1.9-0.3,2.9
				c-0.1,0.4-0.1,0.8,0.1,1.2c0.4,0.8,1.6,0.8,2.5,0.7c3.3-0.4,6.8-0.1,10,0.8c2.6,0.7,5,1.8,7.7,2.2c2.6,0.4,5.6,0.1,7.5-1.8
				c-4.2-2.7-8.5-5.4-12.8-8C148.4,425.1,147.9,424.8,147.4,424.5z"/>
		</g>
		<path class="st3" d="M147.3,235.3c-5.5-3.8-12.7-4-19.4-3.8c-12.2,0.5-31.6,3.1-35.1,17.5c-3,12.5-1.3,29-2.3,41.9
			c-1.3,17.8-2.2,35.6-2.1,53.4c0.1,6.3-1.2,50.8,4.3,53c3.9,1.6,8.4,1.9,12.5,0.8c4.6-33.7,11.6-67,20.9-99.7
			c4.1,33,3.5,67.2,7.5,100.2c2.4,0,9.5-1.4,11.9-1.5c2.4-16.4,4.8-32.7,7.2-49.1c3-20.8,6.1-41.6,7.1-62.5
			c0.6-12,0.5-24.2-3.1-35.6C155.1,244.3,152.2,238.7,147.3,235.3z"/>
		<path class="st4" d="M93.4,203c-2.9,5.1-10.4,5.4-13,11.3c-2.6,6.2,6,9.9,8.5,3.6c0.9-2.2,5.1-3.4,6.7-5c2.3-2.2,4.3-6,3.2-9.2
			C98,201.4,94.8,200.7,93.4,203z"/>
		<g>
			<path class="st4" d="M179,176.4c-2.3-0.9-5.2-1-7,0.7c-2.4,2.3-1.6,6.2-2.8,9.3c-6.9-5.8-6.1-17.2-12.4-23.6
				c-3-3.1-7.3-4.6-11.4-6.3c-8.1-3.2-16-7.3-24.7-8.6c-8.6-1.2-15,1.7-22.1,6.7c-5.9,4.2-11.8,8.5-17.8,12.7
				c-3.6,9.9-6.9,20.6-7.5,31.2c-0.5,9.1-7.1,16.4-5.6,26c0.5,2.9,1.5,5.6,2.4,8.4c2,6.2,2.9,12.8,6.2,18.3c3.3,5.6,10,9.9,16.1,7.9
				c1.6-0.5,3.1-1.5,4.1-2.8c0.3-0.4,0.5-0.8,0.7-1.2c0.6,1.2,1.3,2.2,2.3,3.2c4.3,4.3,11.1,4.5,17.1,3.5c5.9-1,11.8-3.1,17.9-2.6
				c5.9,0.5,12,3.5,17.4,1.1c4.7-2.2,6.8-7.9,6.6-13c-0.2-5.2-2.1-10.1-3.3-15.1c-1.5-6.4-1.8-12.9-2-19.5c0-0.9-0.1-1.8-0.1-2.7
				c1.3,2.4,2.7,4.7,4.5,6.7c2.9,3.2,7,5.6,11.3,5.5c5.5-0.1,10.1-4.1,14.1-7.9c3.2-3,6.6-6.3,7.6-10.6c0.6-2.7,0.2-5.4-0.2-8.1
				C189,187.9,186.2,179.3,179,176.4z M91.7,215.7c0.3-1.1,0.7-2.1,0.6-3.2c-0.1-1.1-0.8-2.2-1.9-2.3c0.6-0.3,1.1-0.7,1.5-1.2
				c0.7,2.3,1,4.7,1.3,7.1c0.7,6.6,1.3,13.1,1.5,19.7C92.4,229.2,90.1,222.4,91.7,215.7z"/>
			<path class="st5" d="M111.4,146.1c-1.2,0-2.5,0-3.6,0.3c-2.9,0.8-6,4.1-4.6,6.7c2.8,5.5,6,10.9,9.4,16c2.3-3.7,4.4-7.6,6.1-11.7
				c2.6,3.8,5.4,7.5,8.2,11.1c0.5,0.6,1.2,1.4,2,1.1c0.7-0.2,1-1,1.1-1.7c0.7-3,1.4-5.9,2.1-8.9c0.3-1.1,0.5-2.3,0.5-3.5
				c0.1-4.2-2.9-7.8-5.7-10.9C122,146,116.4,146,111.4,146.1z"/>
			<path class="st5" d="M180.4,172.9c-2.6-0.5-4.8,0.9-5.8,3.3c-1.7,4.3-2.6,8.9-2.7,13.6c0,2.7,0.3,5.6,1.8,7.9
				c1.6,2.3,4.7,3.6,7.2,2.3c2.4-1.2,3.2-4.1,3.6-6.7c0.9-5.1,1.3-10.3,1.4-15.5C184.1,175.9,183,173.3,180.4,172.9z"/>
		</g>
		<path class="st1" d="M186.9,146.7c-3.7,0-4.3,3.5-5,6.5c-0.7,3.2-1.5,6.3-2.5,9.4c-0.1-1-0.3-2.1-0.6-3.2c-0.3-1.2-2-1.1-2.3,0
			c-1.8,6.1-1.5,12.2,0.4,18.2c0.3,1.1,1.6,1.1,2.2,0.4c1,0.3,2.2-0.1,2.7-1c4.8-9,6.9-18.7,6.7-28.8
			C188.5,147.5,187.8,146.7,186.9,146.7z"/>
		<g>
			<path class="st1" d="M129,106.8c-3.1-2.8-7.9-2.9-11.9-1.7c-4.2,1.3-8.2,4-9.8,8.1c-1.9,4.8,0,10.2,1.9,15c1.9,4.8,4,10.1,2.5,15
				c-0.4,1.2-0.9,2.6-0.4,3.7c0.4,1.1,1.3,2.1,2.1,2.9c1.7,1.6,3.5,3.1,5.5,4.3c0.6,0.3,1.2,0.7,1.8,0.7c0.6,0.1,1.2,0,1.8-0.2
				c1.7-0.5,3.2-1.3,4.5-2.5c-0.1-4.4-0.2-8.5-0.3-12.9c1.9-0.3,3.5-1.9,4.2-3.7c0.8-1.8,0.9-3.8,1-5.7c0.2-3,0.3-6,0.5-9
				C132.8,116,132.8,110.1,129,106.8z"/>
			<path class="st2" d="M136.5,98.5c-0.3-1.2-1.1-2.3-1.9-3.2c-0.9-1-1.8-2-3-2.5c-1.2-0.5-2.7-0.5-3.7,0.3
				c-0.8-1.1-2.2-1.7-3.5-1.5c-1.3,0.2-2.5,1.2-3,2.4c-0.9-1.3-2.6-2-4.1-1.7c-1.5,0.3-2.8,1.6-3.2,3.1c-1.5-0.9-3.5-1-5-0.1
				c-1.5,0.9-2.5,2.6-2.5,4.4c-1.8-0.3-3.5,0.8-4.4,2.3c-0.9,1.5-1,3.4-0.7,5.1c-1.6-0.1-3.2,1-3.9,2.5c-0.6,1.5-0.3,3.4,0.9,4.5
				c-1.7,1.3-2.4,3.8-1.6,5.8c0.8,2,2.9,3.4,5,3.3c-0.4,3,2.5,5.9,5.5,5.5c0.1,1.3,0.7,2.7,1.8,3.3c1.2,0.6,2.9,0.2,3.4-1
				c-0.4-1-1-2-1.7-2.8c-0.5-0.6-1.1-1.1-1.5-1.8c-0.5-0.8-0.8-3.4,0.4-3.9c1.2-0.5,2.4,1.3,2.9,2.1c1.1,2,1.2,4.2,1.3,6.4
				c0.1,5.2,1.3,12,7.2,13.6c1.5,0.4,3.1,0.3,4.6,0c2.7-0.6,5.4-2.1,6.5-4.6c0.7-1.7,0.6-3.6,0.5-5.4c-0.1-1.9-0.2-3.7-0.3-5.6
				c0-0.5-0.1-1-0.4-1.4c-0.4-0.4-0.9-0.4-1.4-0.4c-3.4-0.1-7.2-0.1-9.9,1.9c-0.7,0.5-1.6,1.1-2.2,0.5c-0.6-0.5-0.2-1.5-0.5-2.2
				c-0.5-0.9-1.9-0.8-2.5-1.6c-0.3-0.3-0.4-0.8-0.4-1.2c-0.1-2.4,1.2-4.7,0.7-7.1c-0.2-1-0.7-1.9-1-2.8c-0.5-1.7-0.3-3.7,0.8-5.1
				c1.1-1.4,3.1-2.1,4.7-1.4c0.7,0.3,1.3,0.8,2,1c0.7,0.2,1.7-0.1,1.9-0.8c1,1.8,3.6,2.7,5.5,1.8c1,0.7,2.3,1.3,3.5,0.9
				c1.2-0.4,2-2,1.2-2.9c2.2-1.3,2.6-4.8,0.8-6.6C136.2,101.2,136.7,99.8,136.5,98.5z"/>
		</g>
	</g>
	<g>
		<g>
			<path class="st6" d="M261.2,194.2c-9-12.8-29-21.1-43.9-16.3c-16.4,5.3-24.6,25.4-28.6,41.2c-3,11.8-5.2,23.9-8.3,35.7
				c8.5,6,17.8,11,27.7,14.4c0.3-1.8,0.9-3.6,2.2-4.7c1.1-1,2.6-1.4,4-1.7c8.4-1.8,17.1-2.5,25.7-2c2.3,0.1,4.6,0.3,6.6,1.3
				c3.3,1.5,5.6,4.7,7.8,7.9c0.5,0.7,1,1.5,1.5,2.2c4.9-1.4,9.5-3.4,13.7-5.9c6-6,11.7-12.3,16.7-19c-5.9-13-11.8-25.9-17.6-38.9
				C266.5,203.5,264.3,198.6,261.2,194.2z"/>
			<path class="st4" d="M245.2,198.5c-1.6,3.9-3.5,7.7-5.8,11.3c-2.1,3.2-5.1,9-8.6,10.7c-3.1,1.6-5.5-2.9-7.6-5.3
				c-3.3-3.7-6.4-7.5-9-11.7c-3.7-5.9-6.4-12.6-7.2-19.5c-0.6,0.5-1.2,1.1-1.7,1.6c1.6,15.4,12.8,27.2,23.3,39
				c0.5,0.6,1.4,0.5,1.9,0c7.1-6.5,12.7-14.4,16.5-23.3c2.4-5.6,3.7-11,4.5-16.7c-0.6-0.4-1.3-0.9-2-1.3
				C248.6,188.6,247,193.8,245.2,198.5z"/>
			<path class="st4" d="M202.4,197.6c-2.6,0-2.6,4.1,0,4.1C205,201.7,205,197.6,202.4,197.6z"/>
			<path class="st4" d="M206.6,207c-2.4,0-2.4,3.8,0,3.8C209,210.8,209,207,206.6,207z"/>
			<path class="st4" d="M214,214.8c-3.1,0-3.1,4.8,0,4.8C217.1,219.6,217.1,214.8,214,214.8z"/>
			<path class="st4" d="M221.3,223.8c-1.2,0-2.3,1-2.2,2.2c0.1,1.2,1,2.2,2.2,2.2c1.2,0,2.3-1,2.2-2.2
				C223.5,224.8,222.6,223.8,221.3,223.8z"/>
			<path class="st4" d="M239.5,224c-0.7-0.6-1.5-0.8-2.4-0.4c-0.8,0.3-1.4,1.1-1.3,2c0.1,1.9,2.3,2.8,3.7,1.5c0,0,0.1-0.1,0.1-0.1
				c0.8-0.7,0.8-2.2,0-2.8L239.5,224z"/>
			<path class="st4" d="M245.4,214c-1.2,0-2.3,1-2.3,2.3c0.1,1.2,1,2.3,2.3,2.3c1.2,0,2.3-1,2.3-2.3
				C247.6,215.1,246.6,214,245.4,214z"/>
			<path class="st4" d="M251.4,203.8c-2.4,0-2.4,3.7,0,3.7C253.8,207.5,253.8,203.8,251.4,203.8z"/>
			<path class="st4" d="M255.1,195.9c-1.9,0-1.9,2.9,0,2.9C256.9,198.8,256.9,195.9,255.1,195.9z"/>
			<g>
				<path class="st4" d="M273.4,241.1c-3.4-1.5-7.2-1.8-10.8-1c-2.4,0.5-4.7,2-7.2,1.9c-2.6-0.1-4.8-2.1-6.9-3.5
					c-3.6-2.4-7.3-4.2-11.7-4.4c-4.5-0.1-9.1,0.8-13.4,1.9c-4.5,1.2-8.9,2.8-13.1,4.9c-2.8,1.4-5.9,3-8.7,0.6
					c-1.3-1.1-2.3-2.2-3.9-2.8c-5.4-2.2-10.2-0.1-14.2,3.4c-0.1,0.6-0.3,1.3-0.4,1.9c4.5-4.4,10.4-7.5,16.1-3.3
					c2.5,1.9,3.9,3.8,7.3,2.9c3.8-0.9,7.4-3.4,11-4.7c8-2.9,18.7-6,26.7-1.9c3.1,1.6,5.8,4.4,9.1,5.5c3.5,1.2,6.6-1,9.9-1.6
					c8.6-1.6,17.9,4.5,17.6,13.2c0.3-0.4,0.7-0.8,1-1.1C281.5,248,278.2,243.2,273.4,241.1z"/>
				<path class="st4" d="M273.1,244.8c-3-1.9-6.2-1.8-9.5-0.6c-2.2,0.8-4.4,1.8-6.8,1.6c-2.9-0.2-5.4-1.8-8-2.9
					c-7.6-3.2-16-4.2-24.1-3c-4.2,0.6-8.3,1.8-12.1,3.6c-2.2,1-4.3,2.5-6.6,3.1c-3.1,0.8-5.3-1.2-7.9-2.3
					c-5.7-2.4-11.8,0.9-16.3,5.2c-0.2,0.6-0.3,1.3-0.5,1.9c1.6-1.7,3.3-3.1,5.3-4.3c1.9-1.1,4-2.1,6.2-2.4c2.8-0.4,4.8,0.5,7.2,1.7
					c2.7,1.4,5.1,1.7,7.9,0.5c3.6-1.5,6.9-3.6,10.7-4.7c7.8-2.4,16.2-2.5,24-0.4c3.7,1,7,2.8,10.6,4.1c3.3,1.2,6.1,0.8,9.4-0.4
					c2.3-0.8,4.6-1.7,7-1.1c2.3,0.5,4.4,2.1,5.8,4c2.1,2.9,2.4,6.5,1.7,9.9c0.4-0.4,0.8-0.8,1.2-1.3
					C278.9,252.3,277.5,247.6,273.1,244.8z"/>
			</g>
		</g>
		<g>
			<path class="st7" d="M219.9,373.1c-3.7-1.2-10.6,1.4-10.2,5.2c1.4,16.5,2.8,33,4.2,49.5c-6.4,2.8-12.6,6.5-17.1,11.5
				c6.3,0.8,12.6,0.6,18.7-0.6c0.9-0.2,1.8-0.4,2.5-1c1.6-1.4,0.9-4.1,0.3-6.3c-1.6-6.2-1.2-12.5-0.8-18.6
				C218.3,399.6,219.1,386.4,219.9,373.1z"/>
			<path class="st4" d="M213.2,434.9c-2.6-0.1-5.1-1.4-7.6-2.8c-3.3,2-6.3,4.4-8.8,7.2c6.3,0.8,12.6,0.6,18.7-0.6
				c0.9-0.2,1.8-0.4,2.5-1c1.1-1,1.1-2.5,0.8-4.1C217,434.4,215.1,435,213.2,434.9z"/>
		</g>
		<g>
			<path class="st7" d="M244.4,427.7c1.4-16.5,2.8-33,4.2-49.5c0.3-3.7-6.5-6.4-10.2-5.2c0.8,13.2,1.7,26.5,2.5,39.7
				c0.4,6.2,0.8,12.4-0.8,18.6c-0.6,2.2-1.3,4.8,0.3,6.3c0.7,0.6,1.6,0.8,2.5,1c6,1.2,12.4,1.4,18.7,0.6
				C256.9,434.2,250.7,430.5,244.4,427.7z"/>
			<path class="st4" d="M252.7,432.1c-2.5,1.3-5,2.6-7.6,2.8c-1.9,0.1-3.8-0.5-5.6-1.2c-0.3,1.6-0.3,3.1,0.8,4.1
				c0.7,0.6,1.6,0.8,2.5,1c6,1.2,12.4,1.4,18.7,0.6C259,436.5,256,434.1,252.7,432.1z"/>
		</g>
		<g>
			<path class="st8" d="M250.4,148.6c0.7,0.3,1.5,0.5,2.2,0.8c1.1,0.4,2.5-0.6,2.4-1.8c-0.2-3.8-4.7-5.3-8.2-6.2
				c0.3-2.8,0.3-5.6-0.4-8.3c0.4,0.5,0.8,0.9,1.2,1.3c1.4,1.3,3.1,2.1,5,2.5c1.5,0.3,2.2-1.3,1.4-2.4c-0.3-0.4-0.7-0.9-1.1-1.3
				c1.2-0.1,2.2-0.6,2.5-1.8c0.4-1.8-1.9-2.6-3.2-3.1c-1-0.4-2.1-0.6-3.1-0.7c1.2-1.2,2.1-2.6,2.4-4.3c0.1-0.8-0.7-1.8-1.6-1.2
				c-1.5,1.1-2.7,2.3-3.8,3.7c-0.1,0-0.1,0-0.2,0c-0.6-1.2-1.3-2.3-1.9-3.5c-0.6-1.2-2.4-0.4-2.1,0.9c0.3,1,0.5,2,0.6,3.1
				c-2.9-2.9-6.9-4.5-11-3.7c-1.6,0.3-3.2,0.9-4.7,1.7c0.4-1.4,0.3-2.9-1-3.8c-0.3-0.3-0.9-0.2-1.3,0c-0.7,0.4-1.2,0.9-1.5,1.5
				c-1-2-2.4-3.9-4.1-2.7c-1.2,0.8-0.9,2.3,0,3.7c-0.8-0.4-1.7-0.7-2.5-1.1c-1.6-0.6-2.3,1.7-1.1,2.5c0.5,0.4,2.3,1.3,3.3,2
				c0,0.1,0,0.2,0,0.4c-0.4-0.3-0.7-0.6-1.1-0.9c-0.8-0.6-1.9-0.4-2.2,0.6c-0.2,0.8-0.2,1.5,0.1,2.1c-1.6,0.3-3.9,1-4.7,2.5
				c-0.7,1.2-0.1,2.7,1.3,3c1.1,0.2,2.5-0.4,3.5-0.6c1.3-0.3,2.5-0.7,3.8-1c-0.8,1.9-1.1,4-1.2,6.2c-0.5,0.2-3-0.8-3.2-0.9
				c-1.5-0.6-2.9,1.4-2,2.6c0.1,0.2,0.2,0.3,0.4,0.5c-0.7-0.1-1.4-0.2-2-0.4c-1.7-0.4-3.1,1.7-1.7,3c0.9,0.9,1.9,1.6,3,2.1
				c-1.7-0.1-3.2-0.3-3.5-0.3c-1.1-0.1-2.2,1.2-1.7,2.3c0.8,1.9,2.3,2.9,4.1,3.4c-0.3,0.2-0.7,0.4-1,0.6c-1.2,0.7-1.1,3,0.4,3.2
				c2.2,0.3,4.2,0,6.2-0.6c-0.3,0.4-0.6,0.8-1,1.2c-0.8,0.9-1.7,1.5-1.9,2.7c-0.1,0.6,0,1.3,0.5,1.8c1.9,1.7,3.9,0.5,5.5-1.5
				c-0.1,0.6-0.2,1.1-0.4,1.7c-0.2,0.6-0.5,1.2-0.8,1.7c-0.8,1.8,1.8,3.5,2.8,1.6c0.4-0.8,0.8-1.6,1.1-2.4c0.3-0.7,0.6-1.5,0.9-2.2
				c1.7,2,3.9,3.5,6.7,3.8c3.3,0.4,5.2-1.1,7.2-2.9c0,0,0,0,0,0c-0.3,0.5-0.1,1.1,0.2,1.5c0.4,1.7,1.5,3.3,3.3,4.4
				c1,0.6,2.4-0.4,2.1-1.6c-0.5-1.6-1.3-2.9-2.5-4c0.4-0.7,0.8-1.4,1.2-2.1c1.1,2.5,2.5,4.8,4.3,6.9c0.9,1.1,3-0.1,2.5-1.5
				c-0.5-1.5-1.2-3-1.8-4.4c0.4-0.3,0.7-0.6,1-0.9c1.1,1.1,2.5,1.9,4.1,2.3c1.8,0.5,2.8-1.6,1.7-2.9c-0.1-0.1-0.2-0.2-0.3-0.4
				c0.1,0,0.2,0.1,0.3,0.1c1.7,0.7,3.5-0.8,2.5-2.5C254.5,152.2,252.3,150.4,250.4,148.6z M239.8,151.1c-0.4,0.3-0.7,0.8-0.8,1.3
				c-0.5,0.8-1.1,1.6-1.6,2.3c-0.3,0.4-0.4,0.9-0.3,1.3c-1.6,1.5-3.2,3.1-5.3,3.3c-3.3,0.3-5.6-2.1-7.3-4.8c0.1-0.8,0.2-1.6,0.3-2.4
				c0.1-4.7-2.3-10.1,2.2-13.5c4-3,10.8-1.7,13.6,2.4C242.7,144.2,241.6,147.9,239.8,151.1z M243.3,138.8c-2.6-3.6-7.7-5.5-11.9-5.2
				c-3.9,0.2-7.7,2.4-9.4,5.9c0-0.2-0.1-0.4-0.1-0.6c0-0.3,0-0.6,0-0.9c0.2-4.8,2.7-8.3,6.8-10.6c4.3-2.4,8.9-1.6,12,2.3
				C242.7,132.4,243.4,135.6,243.3,138.8z"/>
			<path class="st7" d="M241.1,129.5c-2.6-1.9-6.2-2.3-9.3-1.4c-3.1,0.9-5.9,2.8-8.2,5.1c-0.5,0.5-1.4,1-1.5,1.7
				c-1.3,6.9-1.6,14-0.7,20.9c0.3,2.1,0.6,4.1,0.8,6.2c0.4,4.5,0,9.1-0.6,13.6c-2,2-4.4,3.6-6.9,4.9c-1.4,0.7-3.1,1.7-2.8,3.2
				c0.1,0.6,0.4,1,0.8,1.5c1.2,1.6,2.4,3.2,3.7,4.7c1.8,2.3,3.6,4.7,6.2,6.2c3.8,2.2,8.7,2.1,12.7,0.2c3.8-1.8,6.8-4.9,9-8.5
				c0.4-0.1,0.7-2.6,0.3-3.1c0-0.4-0.1-0.7-0.3-1.1c-0.8-1.3-2.9-2.1-3.9-3.2c-0.9-1-1.6-2.1-2.2-3.2c-0.8-5.2-2.2-10.4-0.5-15.2
				c1.1-3,2.9-5.8,4.3-8.7c1.4-3,2.5-6.2,3.1-9.5C245.8,138.8,245.3,132.7,241.1,129.5z"/>
			<path class="st6" d="M239.6,126.1c-4.3-2.5-10.3-2.2-14.1,1.1c-3.9,3.4-5,8.8-5.7,13.9c0,0.3,0,0.6,0.1,0.8
				c0.1,0.1,0.2,0.1,0.3,0c2.4-3.8,8.4-5,12.6-4.2c4.5,0.8,8.4,3.8,10.6,7.7c0.4,0.6,1.1,1.4,1.7,1c0.3-0.2,0.4-0.6,0.5-0.9
				c0.5-2.4,1.1-4.8,1-7.3C246.6,133.4,243.9,128.5,239.6,126.1z"/>
		</g>
		<g>
			<path class="st5" d="M237.9,245.8c-7.1-0.5-14.2,0.6-21.1,1.7c-5.6,0.9-11,2.6-14.9,6.1c-5.9,25.8-2.9,52.7,0.2,79
				c2.2,18.7,4.3,37.4,6.5,56c4.1,2.1,8.9,1.8,13.2,0.2c4.1-20.5,6.5-41.4,8.3-62.2c-0.5,16.3,0.5,33.2,2.6,49.5
				c0.6,4.3,1.2,8.6,0.5,12.9c6.2,2.6,12.4,2.7,18.2-0.2c-1.3-18.5-0.4-37.2,2.7-55.5c4.4-26.5,13.4-53.9,4.2-79.7
				C256.1,247.6,245,246.3,237.9,245.8z"/>
			<path class="st4" d="M258.6,255c-5.4-1.7-10.9-2.9-16.5-3.6c2.9-2.4,4.6-5.5,2.7-9.3c-3.6-7.1-12,1-16.1,5.6
				c-2.3-3.6-5.2-6.9-9.4-6.2c-1.3,0.2-2,1.6-2.1,2.8c-0.2,2.6,1.6,4.9,3.8,6.9c-7.3,0.7-15.4,2.2-20.4,7.1
				c-1.3,1.3,0.3,3.2,1.9,2.4c6.7-3.1,14.1-4.7,21.6-5.2c-3.9,8.5-6.6,17.5-8.1,26.7c-0.5,2.9,3.8,4.3,4.6,1.3
				c2.1-7.7,4.3-15.3,7.9-22.4c1.8,8.3,3.7,16.6,5.5,24.9c0.6,2.8,4.6,2,4.7-0.6c0.6-10.3-1.4-20.1-5.8-29.3c0.5-0.2,1-0.3,1.5-0.5
				c7.9,0.5,15.6,2,22.8,4.3C260.4,261,261.8,256,258.6,255z M236,249.9c-0.6,0.3-1.2,0.6-1.8,0.9c-0.4,0-0.7,0-1.1,0
				c2.4-2.7,5.9-6.5,6.5-6C241.1,246.1,236.7,249.5,236,249.9z"/>
		</g>
		<g>
			<path class="st7" d="M229.8,279.6c-1.1-1.1-2.4-2.2-3.9-3.1c-0.7-0.5-1.4-0.5-2-0.3c-0.6-0.4-1.2-0.8-1.8-1.2
				c-8.7-6.1-15.7-13.2-21-22.1c-0.9-1.4-4.2-1.1-4.5-1.3c-1.1-0.8-2.6-0.1-3.3,0.8c-0.1,0.1-0.1,0.2-0.2,0.3
				c-0.1,0.1-0.3,0.3-0.3,0.5c-1.9,3.2,0.1,6.5,3.3,9.4c5.8,8.4,17.8,13,25.9,19.1c0,0,0.1,0.1,0.1,0.1c0.7,0.9,1.4,1.8,1.9,2.9
				c1.5,2.9,3.5,5.1,6,7c1.1,1.2,2.4,2,4.5,2.6c1.7,0.5,3.4-1.1,2.9-2.7C235.9,286.8,233.4,282.9,229.8,279.6z"/>
			<path class="st7" d="M265.5,252.2c-0.1-0.1-0.1-0.2-0.2-0.3c-0.7-0.9-6.9-1-7.8,0.5c-5.3,8.9-12.3,16-21,22.1
				c-0.6,0.4-1.2,0.8-1.8,1.2c-0.6-0.2-1.2-0.2-2,0.3c-1.5,1-2.8,2-3.9,3.1c-3.6,3.3-6.1,7.2-7.6,12c-0.5,1.6,1.2,3.1,2.9,2.7
				c2-0.5,3.4-1.4,4.5-2.6c2.5-1.9,4.4-4.1,6-7c0.6-1.1,1.2-2,1.9-2.9c0,0,0.1-0.1,0.2-0.1c8-6.1,20.1-10.7,25.9-19.1
				c3.2-2.9,5.2-6.2,3.3-9.4C265.8,252.5,265.7,252.3,265.5,252.2z"/>
		</g>
	</g>
	<g>
		<path class="st3" d="M323.7,434.1c0.2-1.4-0.2-3.1-0.8-4.8c-0.6-1.8-2.5-1.6-3.4-0.4c-0.6-0.2-1.2-0.3-1.8-0.3
			c0.3-0.9-0.4-2.1-1.4-2c-7.3,0.8-14.9,4.2-20.6,9.4c-1.2,1.1-0.5,3.1,0.8,3.4c3.6,0.7,7.4,0.1,11.1-0.5c4.6,0.1,9.4-0.1,13.4-1.6
			c0.4-0.1,0.7-0.3,0.9-0.4c0.3-0.1,0.6-0.2,0.9-0.4c0.7-0.4,1.2-1.2,1-2.1C323.8,434.3,323.7,434.2,323.7,434.1z"/>
		<path class="st3" d="M350.2,426.7c-1-0.1-1.7,1.1-1.4,2c-0.6,0-1.3,0.1-1.8,0.3c-0.9-1.2-2.8-1.4-3.4,0.4c-0.6,1.7-1,3.4-0.8,4.8
			c0,0.1,0,0.2-0.1,0.3c-0.2,0.8,0.3,1.7,1,2.1c0.3,0.1,0.6,0.3,0.9,0.4c0.3,0.2,0.6,0.3,0.9,0.4c4.1,1.5,8.9,1.7,13.4,1.6
			c3.7,0.6,7.5,1.3,11.1,0.5c1.4-0.3,2.1-2.3,0.8-3.4C365,430.9,357.5,427.4,350.2,426.7z"/>
		<path class="st2" d="M370.4,327.1c-0.3-10.7-1.4-22.1-8-30.7c-9.1-12-27.3-15.5-41.7-10c-14.3,5.5-27.9,17.1-28.1,32
			c-0.4,34.8,4.9,69.6,15.8,102.8c0.1,0.3,0.3,0.6,0.5,0.8c-1.6,2.2,0.9,6.8,4,7.8c3.6,1.2,7.6,0.5,11.4,1.1
			c1.4-8.1,2.8-16.2,3.5-24.4c2.1-24.5-1.9-50,6.6-73.2c2.1,28.9,3.4,58.1,5.5,87c0.2,2.5,0.4,5,1.5,7.2c3.5,7,12.2,4.7,19.7,2
			c-1.5-1.1-0.5-2.7-2.1-3.9C368.3,392.5,371.5,361.3,370.4,327.1z"/>
		<g>
			<path class="st9" d="M376.1,144.5c-0.5,10.3-1,20.7-1.5,31c-10.8-25.5-13.9-26-32.9-33.7c-0.7-6.3,0.8-6.8-4.9-8.1
				c-5.6-1.3-15.6-1.3-21.2-0.1c-1.2,0.3-2.4,0.5-3.6,0.8c-0.3,0.1-0.6,0.1-0.8,0.4c-0.3,0.3-0.3,0.8-0.3,1.2c0,1.8,0,3.6,0,5.4
				c-7.6,5.1-15.3,10.2-20,18.3c-3.7,6.4-5.2,13.9-6.5,21.2c-1.5,8.3-2.7,16.5-3.8,24.9c-0.4,2.8-0.7,5.7-0.2,8.5
				c1.1,6.2,6.8,11,12.7,10.8c-6.7,34.6-9.7,70.5-9.1,105.8c30.3,17.6,69.6,15.5,98.1-5.2c-9.6-46.7-16.9-93.4-22-140.9
				c4.1,8.5,15.7,10.4,23.3,5.4c7.6-5,11.5-14.9,12.1-24.4c0.4-6.1-0.6-12.7-4.2-17.4C387.8,143.7,381,141.4,376.1,144.5z"/>
			<path class="st10" d="M304.7,145.7c-3.2,1.8-6.4,3.9-9.6,5.7c-0.3,12.6-0.6,25.2-1,37.8c-0.2,5.9-0.3,11.8-0.6,17.7
				c-0.9,16.9-3.2,33.7-6.8,50.1c9.5,10.2,23.2,15.7,36.7,14.8L318,164.3C312.4,159.2,306.7,153.3,304.7,145.7z"/>
			<path class="st10" d="M361.8,195.8c-5.4,9-6.5-31.1,1.6-45l-21.7-10.9c-0.7,7-3.8,13.7-8.5,18.6c6.6,37.4,9.5,76.2,10,114.3
				c10.5,0,21-4,29.2-11c-1.5-12-3.4-24.7-5.3-36.6C365.5,216.1,364.6,204.4,361.8,195.8z"/>
		</g>
		<g>
			<path class="st11" d="M331.8,101.1c0-0.2,0-0.3,0-0.5C331.8,100.7,331.8,100.9,331.8,101.1z"/>
			<path class="st11" d="M334.1,103.3c0.1-1,0.2-2.2-0.4-2.9c-0.5-0.6-1.6-0.4-1.9,0.3c0,0.2,0,0.3,0,0.5c-0.1-0.2,0-0.3,0-0.5
				c0.5-6.5-2.9-13.4-8.6-15.9c-5.7-2.6-13.3,0-16,6c-1.4,3.2-1.5,7-0.8,10.5c0.7,3.5,2.2,6.8,3.8,9.9c-1.3,0.2-1.5,2.3-0.6,3.3
				c0.8,1.1,2.2,1.5,3.2,2.2c2,1.4,3.1,4,3.4,6.5c0.3,2.6-0.1,11.1-0.1,13.4c-0.1-0.3-0.2,0.7,0,0.9c5.8,3.2,13,3.3,18.8,0.1
				C333.5,126.2,332.7,114.6,334.1,103.3z"/>
			<path class="st2" d="M333.7,109.3c0.1-0.1,0.1-0.2,0.1-0.3c-0.1-0.4-0.2-0.9-0.4-1.3c-0.1-0.5-0.2-1-0.3-1.5
				c-0.3-5.4-1-10.7-2.1-16c-0.5-2.2-1-4.5-2.4-6.2c-1.4-1.7-3.9-2.6-5.7-1.5c-1.9-2.4-5.3-2.9-8-1.8c-2.7,1.1-4.9,3.3-6.9,5.7
				c-1.7,2-3.3,4.1-4,6.7c-0.8,2.8-0.4,5.8,0.5,8.6c1,2.7,2.5,5.2,4,7.6c0.7,1,1.5,2.1,2.4,2.9c3,3.6,4,8.9,7.7,11.7
				c1.7,1.3,3.9,1.8,6,1.9c2.1,0,4.3-0.4,6-1.8c2.8-2.3,3.6-6.6,3.5-10.5C334.1,112,333.9,110.7,333.7,109.3z M332.6,108.8
				c-0.3,0.7-0.8,1.2-1.1,1.9c-0.6,1.6,0.3,3.5,0.1,5.3c-0.1,1.8-1.3,3.3-2.8,4.1c-1.5,0.8-3.2,0.9-4.8,0.8
				c-1.5-0.1-3.1-0.5-4.1-1.7c-0.3-0.4-0.6-0.8-0.9-1.2c-0.5-0.5-1.2-0.8-1.9-1.1c-1.1-0.5-2.1-1.3-3-2.1c-0.3-0.5-0.7-1.1-1-1.7
				c0,0,0,0,0,0c0,0-0.1-0.1-0.1-0.1c-0.2-0.4-0.4-0.7-0.6-1.1c-0.1-0.1-0.2-0.1-0.3-0.1c-2.3-3.7-1.9-9-3.8-13.1
				c1.7,0.7,3.4-0.9,4.1-2.7c0.7-1.8,0.8-3.8,1.7-5.5c0.9-1.7,3.5-4.2,5.4-4.4c3.2-0.3-0.3,3.2-1.5,1.9c0.8,0.9,2.3,0.9,3.3,0.2
				c1-0.6,1.7-1.8,2.3-2.8c0.3,4.3,5.1,6.5,6.6,10.4c1.2,2.8,0.5,6.2,1.3,9.2c0.1,0.4,0.3,0.9,0.6,1.2c0.2,0.6,0.4,1.3,0.6,1.9
				C332.7,108.3,332.7,108.6,332.6,108.8z"/>
			<path class="st2" d="M330.2,109.4c-1.2-0.3-2.4-0.4-3.7,0c-1.2,0.4-1.7,1.4-2.7,2c-1,0.6-2.3,0.6-3.3,1.2
				c-1.2,0.7-1.9,1.6-2.6,2.8c-0.4,0.6,0.5,1.3,0.9,0.8c0.7-0.8,1.7-1.6,2.6-2c1-0.5,2.2-0.4,3.1-0.8c0.7-0.4,1-1.1,1.6-1.5
				c1.1-0.8,2.4-0.9,3.7-0.6C330.9,111.5,331.3,109.7,330.2,109.4z"/>
			<path class="st12" d="M318.1,90.6c-1.3,0-1.3,2.3,0,2.3C319.5,92.9,319.5,90.6,318.1,90.6z"/>
		</g>
		<path class="st11" d="M385.8,117.3c-0.3-2.6-1.1-5.1-2.4-7.6c-0.7-1.3-2.9-0.4-2.3,1c0.5,1.4,0.9,2.8,1.2,4.2
			c-1.2-1.9-2.7-3.6-4.8-4.9c-1.3-0.8-2.5,1-1.6,2.2c1.8,2.1,3.2,4.2,4.5,6.5c-1-1.6-2.1-3.2-3.2-4.7c0,0,0,0,0,0c0,0,0,0,0,0
			c-0.1-0.1-0.1-0.2-0.2-0.3c-0.9-1.2-2.5,0.3-1.9,1.6c0.9,1.8,1.6,3.6,2.3,5.5c-0.1,0.1-0.1,0.1-0.1,0.2c-0.3-0.3-0.5-0.6-0.8-0.8
			c-1.2-1.2-2.9,0.6-1.8,2c2.1,2.6,3.7,5.3,4.8,8.2c1,6.1,0.9,12.2,0.5,18.3c1.8,0.9,3.8,1.4,5.8,1.4c-0.3-5.2-0.1-10.6,0.5-15.7
			c0.5-4.2,1.7-8.3,1-12.3c0.2-1.1,0.3-2.2,0.5-3.3C387.7,117.6,386.5,116.7,385.8,117.3z"/>
	</g>
	<g>
		<path class="st12" d="M448.2,415.9c-0.3-0.7-0.9-1.1-1.4-1.1c-1.9-1.9-5.9-0.3-4.8,2.7c0.1,0.3,0.2,0.6,0.3,0.9
			c-0.1,0.2-0.2,0.4-0.2,0.7c-0.1,3.3-0.1,6.6-0.2,9.9c0,2.1-0.6,4.8,0.4,6.8c1.5,3,6.9,4.6,10,3.9c3.3-0.8,4.5-3.8,3.7-6.9
			C454.4,426.9,450.7,421.3,448.2,415.9z"/>
		<path class="st12" d="M417.1,411.6c-1.8-1.2-18.7,12.8-23.2,14.3c-0.6,0.2-1.2,0.4-1.6,0.9c-0.7,0.9-0.1,2.4,1,3
			c1.1,0.5,2.3,0.4,3.5,0.3c8.4-1,16.7-2.7,24.9-5c-0.6-3-1.3-6-2.1-9C419.1,414.4,418.5,412.6,417.1,411.6z"/>
		<path class="st2" d="M440.3,344.8c-1.3-24.2,9.2-47.9,9.6-72.1c0.1-7.7-0.8-15.6-4.5-22.6c-3.7-6.9-10.6-12.8-18.9-14.3
			c-14.2-2.5-27.7,8.1-37.3,17.8c11.2,53.3,22.4,107.1,21.4,161.3c3.2,0.5,6,0.6,9.1,1.1c1.9-15,1.8-30.2-0.4-45.1
			c-1.1-7.8-2.8-15.5-3.1-23.4c-0.4-11.8,2.4-23.7,3.3-35.4c3.4,13.4,7.7,26.6,10.4,40.1c0.6,3.2,1.2,6.3,1.8,9.5
			c0.8,19.2,3.9,38.4,8.8,57.1c0.5,2.1,3.7,2.3,5,1c1.6,0.4,3.2,0.4,4.6-0.1c-0.7-16.5-2.6-32.9-5.7-49.2
			C442.7,362,440.8,353.4,440.3,344.8z"/>
		<g>
			<path class="st6" d="M457.8,189c0.2,0,0.4,0,0.6,0c2.6-0.4,2.6-4.1,1.6-6.5c-3.8-8.9-11.3-16.3-20.5-20.1
				c-9.5-4-21.9-4.8-31.1,0.3c-4.6,2.6-9.6,5.1-10.9,9.7c-1.6,5.7-1.9,12.9-2.3,19.2c-1.3,20.9-5.5,41.4-10.5,61.8
				c-1,3.9-1.9,7.9-1.5,11.9c0.4,4,2.6,8,6.4,9.8c-0.8,2.7,0.9,5.6,3.3,7.2c2.4,1.6,5.4,2.2,8.2,2.8c14.2,2.9,29.6,5.7,42.9,0
				c3-1.3,6.1-3.3,7-6.4c0.3-1.1,0.4-2.3,0.6-3.5c0-0.2,0.1-0.5,0.2-0.7c1.6-1.7,2.9-3.6,4-5.8c5.5-6.3,5.8-18.5,5.7-27.5
				c0.1-1.1,0.2-2.2,0.2-3.3c0.5-6.9,0.4-13.8-0.1-20.6C461.5,207.7,460.6,197.9,457.8,189z"/>
			<path class="st9" d="M421.1,161.1c-6.2,0-12.6,1.3-13,7.9c-1.4,22.3-0.2,44.7,3.8,66.7c2.7-10.5,8.3-20.1,12.4-30.3
				c4-10.1,6.5-20.7,7.3-31.4c0.2-3,0.3-6.2-1.4-8.7C428.4,162.5,424.6,161.1,421.1,161.1z"/>
		</g>
		<g>
			<path class="st12" d="M424.5,137.9c1.9-7.2,5-15.1,1.5-21.8c-0.6-1.2-1.5-2.4-2.7-3.2c-2.2-1.6-5.1-1.8-7.8-1.5
				c-4.3,0.5-8.2,1.2-10.6,4.7c-1.4,2-1.7,4.5-1.9,6.9c-0.3,4.3-0.3,8.6,0,12.9c0.3,3.5,0.9,7.2,3.2,9.9c1.6,2,4.8,3.4,7,1.9
				c3.3,2.8,1.8,9.6,1.8,10.5c-0.1,1.4-1.3,2.5-2.3,3.5c-0.9,0.8-1.8,1.7-2.7,2.5c0,0.2,0.1,0.3,0.1,0.5c0.9,1.8,0.9,4,2.2,5.6
				c1.2,1.6,2.7,3.1,4.7,3.7c2.4,0.7,5-0.3,6.8-1.8c1.9-1.5,3.1-3.6,4.3-5.7C421.9,158.6,421.9,147.5,424.5,137.9z"/>
			<path class="st13" d="M432.4,122c-0.3-3-0.8-6-2.7-8.5c-2.2-2.9-6-4.4-9.7-4.7c-3.7-0.3-7.4,0.6-11,1.7c-1.3,0.4-2.6,0.9-3.3,2
				c-1.9,3,3.1,2.8,4.3,3.7c2.2,1.7,3.1,6.6,3.7,9c1.6,6.4,1.6,13,3.1,19.4c0.7,3.3,2.3,6.9,5.7,7.9c-5.1,14.9-0.1,31.7-5.6,46.5
				c-0.8,2.3-1.9,4.5-2.2,6.9c-0.3,2.4,0.3,5.1,2.3,6.5c0.7-2.3,1.5-4.7,2.2-7c0.4,2.1,1.5,4,3.1,5.5c1.3-9,5.2-17.5,7.6-26.2
				c2.4-8.8,3.2-18.6-1.4-26.6c-0.7-1.1-1.4-2.3-1.4-3.5c0-0.9,0.4-1.7,0.7-2.5C431.8,142.7,433.4,132.2,432.4,122z"/>
		</g>
		<path class="st12" d="M432.9,245.4c-5.1,11.6-10.7,22.7-17.3,33.6c-2.2,0.4-4.4,2.2-6.1,3.8c-2.5-1.7-5.1-2.6-8-3.1
			c-2.4-11.4-4.6-23.7-5.7-35.2c-3.1,0-6.1,2.7-6.3,5.8c-0.9,13.2,7.3,24.9,11.2,37.5c0.8,2.7,2.2,5.9,5.1,6.1
			c0.9,0.1,1.7-0.2,2.6-0.2c0.9,0,1.7,0.2,2.6,0.2c1.8-0.1,3.3-1.6,4.3-3.2c1.4-2.2,2.2-4.7,2.4-7.2c8.3-9.8,14.9-21.1,20.4-32.7
			C437.8,247.8,435.8,245.8,432.9,245.4z"/>
	</g>
	<g>
		<path class="st2" d="M505.7,418.1c-0.2-0.7-0.3-2.6-1.1-3.4c-0.9-1-1.7-1.2-2.8-1c-0.8-0.5-1.8-0.4-2.6,0.5
			c-0.2,0.2-0.4,0.4-0.5,0.6c-1.1,0.7-2,1.6-3,2.4c-2,1.3-4.2,2.4-6.2,3.5c-2.7,1.5-5.4,3.2-8.3,4.3c-2.6,0.7-5.7,1.2-6.7,3.8
			c-0.2,0.6,0,1.5,0.5,1.9c2.8,2.4,8.1,0.3,11.1-0.1c6.8-0.8,13.6-1,20.4-0.9c1.2,0,2-0.9,2.1-2c0.5-0.7,0.7-1.5,0.2-2.4
			C507.5,423,506.5,420.7,505.7,418.1z"/>
		<path class="st13" d="M552.2,388.9c-1.4-14-2.5-28-3.2-42c-0.5-10,0-20.5-0.6-30.7c2.3-34.6,8-69.5,0.4-103.3
			c-25.9-7.7-52.2,2.1-70.9,20.3c-5.2,57.7,18.6,114.5,18.7,172.4c0,3.3-1.3,7.6-1.7,11.4c3.8,1.2,7.7,2.4,11.8,3.1
			c10.3-25.1,3.5-55.7,1.2-81.7c-2.1-24.9-2.5-50.8,7.7-73.9c8.1,23.3,13.3,47.3,16.4,71.8c3.4,27.1,3.5,54.9,8.3,81.8c0,0,0,0,0,0
			c5.1-1.1,10.1-2.4,15.1-3.7c-0.2-1.2-0.5-2.2-0.6-3.2C553.9,403.8,553,396.4,552.2,388.9z"/>
		<g>
			<path class="st5" d="M563.5,177.6c-0.3-3.4,1.1-6.6,1.9-9.9c1.9-7.9,0-16.1-2.7-23.8c-2.7-7.7-6.2-15.2-7.5-23.2
				c-0.6-3.3-0.7-6.8-2-9.9c-2.8-7-10.5-11.4-18.3-13.5c2.1-0.7,4-2.1,5-3.9c-11.1-3.2-21.3-7.2-32.5-4.2c-5.1,1.4-10.1,3.4-14.6,6
				c0.8,1.2,2.1,2,3.6,2.3c-6.7,4.5-13.4,8.9-20.2,13.4c-1.6,1.1-3.3,2.2-4.4,3.7c-1.6,2.1-1.9,4.7-2.2,7.2
				c-1.1,9.6-1.7,19.2-1.8,28.8c0,6.2,0.2,12.3-0.4,18.4c-0.5,5.3-1.6,10.6-2.2,15.9c-0.9,8-0.7,16,0.7,24c0.9,5.1,3.5,9.5,6.4,13.9
				c-0.3,3.9-0.1,7.7-0.4,11.6c-0.1,1-0.1,2.1,0.3,3.1c0.5,1.1,1.7,1.8,2.8,2.5c10.2,6,22.1,9.5,34.2,10.2c1.2-7.5,2.4-15,3.6-22.5
				c1.2,6.9,2.5,13.9,3.7,20.8c0.1,0.7,0.3,1.4,0.8,1.8c0.5,0.4,1.3,0.5,2,0.6c6.4,0.4,12.7-1.6,18.7-3.7c5.5-1.9,10.9-4,16.2-6.1
				c1-0.4,2.1-0.9,2.6-1.7c0.7-1,0.5-2.2,0.3-3.4c-0.4-2.7-0.8-5.5-1.2-8.2c2-0.8,3.2-3.1,4-5.1c4.8-12.5,9.7-26,5.4-38.7
				C564.6,181.7,563.7,179.7,563.5,177.6z"/>
			<path class="st6" d="M520.9,91.5c-2.7-1.9-12.6-0.5-15.1,1.8c-3.9,3.6-1,15.3-0.5,19.7c2.4,19.6,4.8,39.2,7.2,58.7
				c6.2-11.5,6.1-24.9,8-37.7c1.9-12.7,6.1-25.6,2.9-38.1C523,94.3,522.4,92.6,520.9,91.5z"/>
		</g>
		<g>
			<path class="st14" d="M526.8,64.4c-0.4-0.2-0.8-0.2-1.2,0c-0.2,0.1-0.4,0.2-0.6,0.3c0.1-2.4,0.2-4.1,0.2-4.5
				c-0.2-3.1-0.9-6.2-2.7-8.8c-1.8-2.6-5-4.7-8.3-4.5c-1.5,0.1-2.9,0.5-4.3,1c-2.2,0.8-4.6,1.6-5.8,3.5c-1.3,2-1.1,4.6-0.7,6.9
				c0.3,2.4,0.4,4.9,0.8,7.3c-0.5-0.7-1.6-1.5-2.2-0.9c-0.3,0.3-0.3,0.7-0.2,1.1c0.2,2,1.1,4,2.5,5.6c-0.1,2,2.4,6.3,2.4,8.3
				c-0.1,4.2-0.4,9.6-0.5,13.8c1.4,2.4,0.5,1.1,3.1,2.5c2.5,1.4,5.7,1.9,8.3,0.8c0.9-0.4,3.8-2.1,5.4-3.2c-0.3-3.2-0.5-8.3-0.3-13.9
				c0.1-2.5,2-6.7,2.1-9c0.3-0.4,0.7-0.8,1.1-1.1c1.2-1.2,2.2-2.3,2.2-4C527.9,65,527.4,64.5,526.8,64.4z"/>
			<path class="st6" d="M522.4,49.1c0.6-1.3-0.2-2.9-1.5-3.7c-1.3-0.8-2.9-1-4.5-1.1c-2.9-0.1-5.8,0.3-8.6,1
				c-1.5,0.4-3.1,0.9-4.5,0.4c-1-0.4-1.8-1.3-2.9-1.2c-0.9,0.1-1.5,0.9-1.8,1.7c-1.2,3.1,0.2,7,3.1,9c0.9,3.5,1.6,7.1,2.1,10.7
				c0.2-3.6,0.6-7.8-0.4-11.3c0.5,1.1,1.3,2.3,2.5,2.2c1.2-0.1,1.8-1.2,2.3-2.2c1-1.8,2.4-3.4,4.2-4.4c1.9-1,4.2-1.4,6.3-0.8
				c0.9,0.3,1.9,0.8,2.1,1.7c0.5,1.6-1.6,3.3-1,4.9c0.4,1,1.7,1.4,2.5,2.1c1.9,1.8,0.9,4.9,2,7.3c0.8-3.5,1.1-7.1,0.9-10.6
				C525.2,52.7,524.7,50,522.4,49.1z"/>
		</g>
		<path class="st2" d="M558.1,421c-2.2-3.1-4.3-9.7-8.9-10c-3.4-0.2-8.4,4.7-8.5,5.7c0,0.7-1.3,6.1,0.4,7c0.1,0.9,0.2,1.8,0.4,2.6
			c0.4,2.4,0.3,5.5,1.7,7.6c2.5,3.9,8.3,3.1,12.5,2.9c3.3-0.1,9.5,0,10.3-3.9c0.4-1.8-0.7-3.1-1.8-4.4
			C562.3,425.9,560,423.6,558.1,421z"/>
	</g>
	<g>
		<g>
			<path class="st9" d="M649.1,354.7c-5.3-3.1-13.2-1.6-17.8,2.8c8.1,23,14.1,38.5,14.7,63.4c0.1,2.4-1.4,14.3-0.1,16.2
				c1.1,1.5,2.9,2.2,4.6,2.4c3.5,0.6,7.1-0.2,10.2-2.1c-0.4-7.3-5.6-12.4-8.5-18.6C648.3,398,647.3,375.9,649.1,354.7z"/>
			<path class="st13" d="M655.8,427.1C655.7,427.1,655.7,427.1,655.8,427.1C655.7,427.1,655.7,427.1,655.8,427.1z"/>
			<path class="st13" d="M645.7,426.7c-0.3,4.2-0.5,9.2,0.3,10.4c1.1,1.5,2.9,2.2,4.6,2.4c3.5,0.6,7.1-0.2,10.2-2.1
				c-0.3-4.8-2.6-8.6-5-12.5C652.2,424.7,648.8,425.4,645.7,426.7z M655.9,427.2c0.5,1.2,1.5,2.1,1.5,3.4c-3.6-1.1-7.6-0.7-10.9,1.1
				c0-0.9-0.1-1.7,0-2.6c2.7-1.7,6-1.9,9.2-2c0,0-0.1-0.1,0-0.1C655.8,427,655.9,427.1,655.9,427.2z"/>
		</g>
		<g>
			<path class="st9" d="M607.2,344.1c-7.7,2.5-14.8,8.1-17.5,16.1c3.6,20.2,8.3,40.3,13.9,60c-6.4,4.6-13.3,7.9-19.7,12.5
				c-8,5.7,21.6,0.8,30.3-4.2C607.9,401.1,606.8,372.2,607.2,344.1z"/>
			<path class="st13" d="M599.3,429c0.5-0.2-0.4-2.5-1.6-5c-1,0.6-2.1,1.3-3.1,1.9c0.4,1,0.7,2,0.6,3c-0.2,1.9-2.5,3.5-3.9,2.3
				c-0.2-1-0.4-1.9-0.7-2.9c-2.3,1.4-4.5,2.8-6.7,4.3c-8,5.7,21.6,0.8,30.3-4.2c-0.4-1.9-0.8-3.8-1.2-5.8
				C608.4,424.8,603.8,426.9,599.3,429z"/>
		</g>
		<g>
			<path class="st9" d="M647.7,140.3c-1-0.3-2.1-0.3-3.1-0.5c-1.3-0.3-2.4-1.1-3.5-1.8c-2.7-1.7-5.6-3.1-8.5-4.2
				c0.3-0.3,0.6-0.6,0.9-1c1.7-2,0.6-4.8-2.2-5c-5-0.4-9.9-0.2-14.9,0.5c-3.3,0.4-5.2,0.2-8.5-0.5c-1.4-0.3-2.8-0.8-4.2-0.3
				c-2.7,0.8-3.4,3.5-3.2,6.6c-3.6,1.4-7.2,3.3-10.6,5.7c-3.3,2.4-6.1,6-6.5,10.3c-0.2,2.2,0.2,4.4,0.1,6.6
				c-0.2,3.4-1.5,6.5-2.7,9.7c-3.8,10-6.5,20.5-7.9,31.1c-0.8,5.9-1.1,12.1,0.6,17.7c1.5,4.7,5.9,9.3,10.1,7.2
				c1.3-0.6,2.3-1.8,3.4-2.8c6.6-5.6,16.1-2.1,24.2,0.4c8.6,2.7,18.1,4,26.4,0.4c3.3-1.4,6.4-3.7,8-7.1c1.5-3.5,1.2-7.5,1-11.3
				c-0.7-14,0.9-28.1,4.7-41.5c1.1-3.7,2.3-7.5,2.1-11.4C653.4,145.3,651.2,141.2,647.7,140.3z"/>
			<path class="st2" d="M675.8,335.1c-6.2-10.1-9.6-21.5-12.7-32.8c-8.5-30.2-15.9-60.6-23.4-91.1c-2.2-8.9-4.4-17.8-5-26.8
				c-1.1-16,2.8-31.9,6.7-47.6c-3.1-1.5-5.8-2-9.2-2.7c-4.4,13.8-17.1,24.3-31.2,30c-0.4,0.2-0.8,0.3-1.3,0.2
				c-0.7-0.2-0.9-0.9-1.1-1.5c-2.1-9.5-2-19.4,0.4-28.8c-2.4,1.3-4.1,2.5-6.8,3.1c0.3,7-1,14-3.9,20.5c-1.7,4-4.1,7.8-4.7,12
				c-0.5,3.4,0,6.8,0.4,10.3c2.5,22.2-2.3,44.4-6.2,66.5c-5.8,32.7-9.6,65.7-11.5,98.9c-0.4,7.6-0.7,15.3,1,22.7
				c4.4-3.4,10.8-0.1,16.1,2c8.1,3.2,17.6,3.1,25.6-0.3c5.3-2.3,10.4-6.1,16.2-5.8c4.5,0.2,8.5,2.9,12.8,4.4
				c8.3,2.9,18.3,1.1,24.8-4.4c1.1-1,2.2-2,3.6-2.7c3-1.5,6.8-0.5,10-1.6c4.7-1.6,6.6-7.2,5.6-11.8
				C681.3,343.1,678.3,339.2,675.8,335.1z"/>
			<g>
				<path class="st9" d="M662.3,317.4c-6.6,5.4-11.4,13.3-20.8,10.3c-6.7-2.1-11.6-6.1-18.9-6.3c-6.1-0.2-11.8,1.9-16.9,5.3
					c-3.2,2.1-5.9,4.6-9.7,5.6c-5.4,1.5-9.8-1.6-15-3c-4.4-1.2-9-1.5-13.6-0.9c-0.2,2-0.3,4.1-0.5,6.1c1.9-0.2,3.9-0.3,5.9-0.1
					c7,0.7,12.7,5.9,19.6,6.5c13.6,1.1,20.7-14.9,35.5-10c11,3.7,18.6,10.3,29.7,2.1c4.2-3.1,7.6-7.2,11.8-10.1
					c-1.1-2.8-2.1-5.6-3.1-8.5C665.2,315.3,663.7,316.3,662.3,317.4z"/>
				<path class="st12" d="M672,328c-3.2,1.3-6.3,3.2-9.1,5.5c-6.6,5.4-11.4,13.3-20.8,10.3c-6.7-2.1-11.6-6.1-18.9-6.3
					c-6.1-0.2-11.8,1.9-16.9,5.3c-3.2,2.1-5.9,4.6-9.7,5.6c-5.4,1.5-9.8-1.6-15-3c-4.9-1.3-10.1-1.5-15.2-0.7c0,0.2,0,0.4,0,0.6
					c-0.1,1.8-0.2,3.7-0.3,5.5c2.4-0.4,4.8-0.6,7.4-0.3c7,0.7,12.7,5.9,19.6,6.5c13.6,1.1,20.7-14.9,35.5-10
					c11,3.7,18.6,10.3,29.7,2.1c4.7-3.5,8.4-8.3,13.5-11.2c1.4-0.8,2.9-1.4,4.4-2c-0.2-0.3-0.3-0.5-0.5-0.8
					C674.4,332.8,673.1,330.4,672,328z"/>
			</g>
			<path class="st5" d="M649.8,214.2c-1.1-1-2.4-2.1-2.5-3.6c-0.2-2.3,2.2-3.7,3.7-5.2c4.2-4.1,2.6-12.7-2.8-14.9
				c-5.4-2.2-12,3.1-11.6,9.1c-17.9-2.7-36.3-1.8-53.9,2.5c-0.9,6,0.1,11.1,0.4,17.2c9.7-2.5,20.1-4.2,30.1-4.6
				c9.9-0.4,20.2,1.4,28.6,6.9c-1.3-3.6-1-6.7-2.3-10.3c3,8,6.6,15.7,10.8,23c1.6,2.7,4.7,5.8,7.2,4c1.5-1.1,1.6-3.3,1.5-5.3
				C658.4,225.8,655,218.9,649.8,214.2z"/>
		</g>
		<g>
			<path class="st9" d="M642.5,95.4c1.6-1.6,4.7-2.1,5-4.3c0.2-1.8-1.8-3.1-3.7-3.5c-4.4-1-9.3,0.3-13.2-1.8
				c-3.4-1.9-4.8-5.9-4.9-9.7c-0.1-1.8,0.1-3.5-0.4-5.2c-0.4-1.7-1.6-3.4-3.4-3.9c-1.8-0.5-4.1,0.7-4,2.5c-0.1-1.3-1.7-2.2-3.1-1.9
				s-2.5,1.3-3.3,2.3c-2.7,3.1-4.5,6.8-5.4,10.7c-0.2,0.9-0.4,1.9-0.9,2.7c-1.3,1.8-4,1.9-6.3,1.5c-2.3-0.4-4.7-1-6.7,0
				c-1.8,0.8-2.8,2.8-2.4,4.6c0.4,1.8,2.1,3.3,4.1,3.4c-1.8,0.8-2.3,3.2-1.5,4.9c0.8,1.7,2.6,2.8,4.4,3.7c7.5,3.6,14.4,2,22.3,2.9
				c9.6,1,18.9,0.6,28.2-2.2c0.7-0.2,1.5-0.5,1.6-1.2c0.1-0.5-0.2-1-0.5-1.4C646.7,97.8,644.7,96.3,642.5,95.4z"/>
			<path class="st11" d="M611,80.9c-3.3,0.3-4.7,4-5.3,7.1c-1.2,6.3-2.1,13,1,18.7c1.3,2.4,3.2,4.5,4.5,6.9
				c2.2,4.2,2.3,9.1,2.3,13.8c0,2.4-0.1,5.1-1.9,6.8c-0.6,0.6-1.4,1-2.3,1.3c0,0.7,0.1,1.4,0.2,2.1c0.4,1.6,1.2,3.1,2,4.6
				c0.2,0.4,0.4,0.8,0.7,1.2c3.9-2.6,7.8-5.3,11.7-7.9c0.7-0.7,1.5-1.5,2.2-2.2c-1.6-4.6-1.7-9.7-1.7-14.6c0-1.3,0-2.6,0.4-3.8
				c0.4-1.5,1.2-2.8,1.9-4.1c2.1-4.2,2.7-8.8,3.1-13.4c0.4-4.7,0.4-9.8-2.5-13.7C623.4,78.8,616,77.2,611,80.9z"/>
			<path class="st13" d="M632.9,90.3c-1.2-5.5-4.6-11.2-10.3-13c-1.2-0.4-2.6-0.5-3.4,0.4c-0.1-1.3-2-1.5-3.4-1.2
				c-5,1.1-9.3,4.6-11.3,9c-1.1,2.4-1.6,5-2,7.5c-1,6.3-1.5,13.2,2.1,18.5c-4.7,5.2-7.7,11.8-8.4,18.7c3.7-1.1,6.6-3.8,8.6-6.9
				c1.9-3.1,3-6.6,3.8-10.2c0.8,0.3,1.6,0.3,2.4,0.1c-2-2.5-2.5-5.7-2.9-8.8c-0.6-4.7-1.1-9.6,0.3-14.2c0.7-2.4,5.9-11.7,9.7-8.9
				c1.2,0.8,2.2,4.8,3.3,6.2c1.5,2,3.4,3.8,4.7,5.9c3.7,5.8,3.4,13.7-0.9,19.2c0.9,0.1,1.8,0.1,2.7,0.2c0.9,6.8,2.4,14.4,8.6,18.1
				c-0.4-7.2-2.5-14.3-5.9-20.7C633.6,104,634.3,96.9,632.9,90.3z"/>
		</g>
	</g>
</g>
<g id="DESIGNED_BY_FREEPIK">
</g>
</svg>
