<svg id="_x31__x2C_5" enable-background="new 0 0 36 36" height="512" viewBox="0 0 36 36" width="512" xmlns="http://www.w3.org/2000/svg"><path d="m31.833 8.377c0 6.917 3.583 11.667 3.583 15s-1.916 10.333-17.249 10.333-17.584-9.417-17.584-13.083c0-17.167 31.25-24.5 31.25-12.25z" fill="#efefef"/><g fill="#a4afc1"><path d="m7.533 25.033h1v2h-1z" transform="matrix(.707 -.707 .707 .707 -16.055 13.305)"/><path d="m3.467 20.967h1v2h-1z" transform="matrix(.707 -.707 .707 .707 -14.371 9.239)"/><path d="m3.144 25.533h2v1h-2z" transform="matrix(.707 -.707 .707 .707 -17.194 10.555)"/></g><circle cx="11.5" cy="11.5" fill="#f3f3f1" r="4.75"/><circle cx="15" cy="21" fill="#2fdf84" r="1.25"/><circle cx="15" cy="28" fill="#2fdf84" r="1.25"/><path d="m16 21c0-.19.049-.365.125-.526-.2-.425-.625-.724-1.125-.724-.69 0-1.25.56-1.25 1.25s.56 1.25 1.25 1.25c.5 0 .925-.299 1.125-.724-.076-.161-.125-.336-.125-.526z" fill="#00b871"/><path d="m16 28c0-.19.049-.365.125-.526-.2-.425-.625-.724-1.125-.724-.69 0-1.25.56-1.25 1.25s.56 1.25 1.25 1.25c.5 0 .925-.299 1.125-.724-.076-.161-.125-.336-.125-.526z" fill="#00b871"/><path d="m9 11.5c0-2.234 1.547-4.094 3.625-4.601-.362-.089-.735-.149-1.125-.149-2.623 0-4.75 2.127-4.75 4.75s2.127 4.75 4.75 4.75c.39 0 .763-.06 1.125-.149-2.078-.507-3.625-2.367-3.625-4.601z" fill="#d5dbe1"/><path d="m11.5 17c-3.033 0-5.5-2.467-5.5-5.5s2.467-5.5 5.5-5.5 5.5 2.467 5.5 5.5-2.467 5.5-5.5 5.5zm0-9.5c-2.206 0-4 1.794-4 4s1.794 4 4 4 4-1.794 4-4-1.794-4-4-4z"/><path d="m15 23c-1.103 0-2-.897-2-2s.897-2 2-2 2 .897 2 2-.897 2-2 2zm0-2.5c-.276 0-.5.224-.5.5s.224.5.5.5.5-.224.5-.5-.224-.5-.5-.5z"/><path d="m15 30c-1.103 0-2-.897-2-2s.897-2 2-2 2 .897 2 2-.897 2-2 2zm0-2.5c-.276 0-.5.224-.5.5s.224.5.5.5.5-.224.5-.5-.224-.5-.5-.5z"/><path d="m20 9h10v1.5h-10z"/><path d="m20 13h10v1.5h-10z"/><path d="m20 20h10v1.5h-10z"/><path d="m20 24h10v1.5h-10z"/><path d="m20 28h10v1.5h-10z"/></svg>